{
  "accessors": [
    {
      "bufferView": 2,
      "componentType": 5126,
      "count": 12,
      "max": [
        1037.011962890625,
        597.7766723632813,
        38.886470794677734
      ],
      "min": [
        908.7699584960938,
        469.5346984863281,
        18.052961349487305
      ],
      "type": "VEC3"
    },
    {
      "bufferView": 2,
      "byteOffset": 144,
      "componentType": 5126,
      "count": 12,
      "max": [
        0.7406763434410095,
        0.7406763434410095,
        -0.4674417972564697
      ],
      "min": [
        -0.14470751583576202,
        -0.14470753073692322,
        -0.8776375651359558
      ],
      "type": "VEC3"
    },
    {
      "bufferView": 1,
      "componentType": 5126,
      "count": 12,
      "max": [
        0.0,
        0.0
      ],
      "min": [
        0.0,
        0.0
      ],
      "type": "VEC2"
    },
    {
      "bufferView": 0,
      "componentType": 5125,
      "count": 30,
      "type": "SCALAR"
    },
    {
      "bufferView": 2,
      "byteOffset": 288,
      "componentType": 5126,
      "count": 1304,
      "max": [
        1047.3936767578125,
        608.1583862304688,
        121.0999984741211
      ],
      "min": [
        640.9903564453125,
        201.75511169433594,
        11.644329071044922
      ],
      "type": "VEC3"
    },
    {
      "bufferView": 2,
      "byteOffset": 15936,
      "componentType": 5126,
      "count": 1304,
      "max": [
        0.999820351600647,
        0.999820351600647,
        1.0
      ],
      "min": [
        -0.9999933838844299,
        -0.9999933838844299,
        -1.0
      ],
      "type": "VEC3"
    },
    {
      "bufferView": 1,
      "byteOffset": 96,
      "componentType": 5126,
      "count": 1304,
      "max": [
        0.5256969928741455,
        0.7057399749755859
      ],
      "min": [
        0.0,
        0.0
      ],
      "type": "VEC2"
    },
    {
      "bufferView": 0,
      "byteOffset": 120,
      "componentType": 5125,
      "count": 4212,
      "type": "SCALAR"
    },
    {
      "bufferView": 2,
      "byteOffset": 31584,
      "componentType": 5126,
      "count": 72,
      "max": [
        985.8297729492188,
        546.5945434570313,
        115.92465209960938
      ],
      "min": [
        751.330322265625,
        312.0950622558594,
        78.69017028808594
      ],
      "type": "VEC3"
    },
    {
      "bufferView": 2,
      "byteOffset": 32448,
      "componentType": 5126,
      "count": 72,
      "max": [
        0.6514832377433777,
        0.6514832973480225,
        0.9842913746833801
      ],
      "min": [
        -0.5878995656967163,
        -0.5878995656967163,
        0.4973776936531067
      ],
      "type": "VEC3"
    },
    {
      "bufferView": 1,
      "byteOffset": 10528,
      "componentType": 5126,
      "count": 72,
      "max": [
        0.0,
        0.0
      ],
      "min": [
        0.0,
        0.0
      ],
      "type": "VEC2"
    },
    {
      "bufferView": 0,
      "byteOffset": 16968,
      "componentType": 5125,
      "count": 252,
      "type": "SCALAR"
    },
    {
      "bufferView": 2,
      "byteOffset": 33312,
      "componentType": 5126,
      "count": 20,
      "max": [
        780.7119140625,
        341.4766540527344,
        73.11519622802734
      ],
      "min": [
        650.487060546875,
        211.25177001953125,
        54.18909454345703
      ],
      "type": "VEC3"
    },
    {
      "bufferView": 2,
      "byteOffset": 33552,
      "componentType": 5126,
      "count": 20,
      "max": [
        0.051441438496112823,
        0.051441460847854614,
        0.9492184519767761
      ],
      "min": [
        -0.814462423324585,
        -0.8144623637199402,
        0.5789147615432739
      ],
      "type": "VEC3"
    },
    {
      "bufferView": 1,
      "byteOffset": 11104,
      "componentType": 5126,
      "count": 20,
      "max": [
        0.0,
        0.0
      ],
      "min": [
        0.0,
        0.0
      ],
      "type": "VEC2"
    },
    {
      "bufferView": 0,
      "byteOffset": 17976,
      "componentType": 5125,
      "count": 60,
      "type": "SCALAR"
    },
    {
      "bufferView": 2,
      "byteOffset": 33792,
      "componentType": 5126,
      "count": 4,
      "max": [
        1070.1759033203125,
        630.9406127929688,
        0.0
      ],
      "min": [
        606.3845825195313,
        167.14926147460938,
        0.0
      ],
      "type": "VEC3"
    },
    {
      "bufferView": 2,
      "byteOffset": 33840,
      "componentType": 5126,
      "count": 4,
      "max": [
        0.0,
        -0.0,
        1.0
      ],
      "min": [
        0.0,
        -0.0,
        1.0
      ],
      "type": "VEC3"
    },
    {
      "bufferView": 0,
      "byteOffset": 18216,
      "componentType": 5125,
      "count": 6,
      "type": "SCALAR"
    },
    {
      "bufferView": 2,
      "byteOffset": 33888,
      "componentType": 5126,
      "count": 6,
      "max": [
        711.22509765625,
        271.9898681640625,
        61.7492561340332
      ],
      "min": [
        687.9290161132813,
        248.69378662109375,
        60.19178771972656
      ],
      "type": "VEC3"
    },
    {
      "bufferView": 2,
      "byteOffset": 33960,
      "componentType": 5126,
      "count": 6,
      "max": [
        0.38399937748908997,
        0.3839993476867676,
        0.15561255812644958
      ],
      "min": [
        -0.9644169807434082,
        -0.9644169807434082,
        0.08699674159288406
      ],
      "type": "VEC3"
    },
    {
      "bufferView": 1,
      "byteOffset": 11264,
      "componentType": 5126,
      "count": 6,
      "max": [
        0.0,
        0.0
      ],
      "min": [
        0.0,
        0.0
      ],
      "type": "VEC2"
    },
    {
      "bufferView": 0,
      "byteOffset": 18240,
      "componentType": 5125,
      "count": 12,
      "type": "SCALAR"
    },
    {
      "bufferView": 2,
      "byteOffset": 34032,
      "componentType": 5126,
      "count": 266,
      "max": [
        985.8297729492188,
        546.5945434570313,
        116.38987731933594
      ],
      "min": [
        751.330322265625,
        312.0950622558594,
        32.22212219238281
      ],
      "type": "VEC3"
    },
    {
      "bufferView": 2,
      "byteOffset": 37224,
      "componentType": 5126,
      "count": 266,
      "max": [
        0.9979649782180786,
        0.9979649782180786,
        0.9982993602752686
      ],
      "min": [
        -0.9979602098464966,
        -0.9979602098464966,
        -0.9999384880065918
      ],
      "type": "VEC3"
    },
    {
      "bufferView": 0,
      "byteOffset": 18288,
      "componentType": 5125,
      "count": 1404,
      "type": "SCALAR"
    },
    {
      "bufferView": 2,
      "byteOffset": 40416,
      "componentType": 5126,
      "count": 48,
      "max": [
        1028.74267578125,
        589.5074462890625,
        19.08102035522461
      ],
      "min": [
        640.9903564453125,
        201.75511169433594,
        11.644329071044922
      ],
      "type": "VEC3"
    },
    {
      "bufferView": 2,
      "byteOffset": 40992,
      "componentType": 5126,
      "count": 48,
      "max": [
        0.8377400040626526,
        0.8377400040626526,
        -0.5431187152862549
      ],
      "min": [
        -0.7366212010383606,
        -0.7366212010383606,
        -0.9999963641166687
      ],
      "type": "VEC3"
    },
    {
      "bufferView": 1,
      "byteOffset": 11312,
      "componentType": 5126,
      "count": 48,
      "max": [
        0.0,
        0.0
      ],
      "min": [
        0.0,
        0.0
      ],
      "type": "VEC2"
    },
    {
      "bufferView": 0,
      "byteOffset": 23904,
      "componentType": 5125,
      "count": 150,
      "type": "SCALAR"
    },
    {
      "bufferView": 2,
      "byteOffset": 41568,
      "componentType": 5126,
      "count": 18,
      "max": [
        913.9559936523438,
        474.7207336425781,
        90.75053405761719
      ],
      "min": [
        765.3221435546875,
        326.0868835449219,
        79.61611938476563
      ],
      "type": "VEC3"
    },
    {
      "bufferView": 2,
      "byteOffset": 41784,
      "componentType": 5126,
      "count": 18,
      "max": [
        0.9309283494949341,
        0.9309284090995789,
        -0.14191202819347382
      ],
      "min": [
        0.32685407996177673,
        0.32685399055480957,
        -0.1632106602191925
      ],
      "type": "VEC3"
    },
    {
      "bufferView": 0,
      "byteOffset": 24504,
      "componentType": 5125,
      "count": 48,
      "type": "SCALAR"
    },
    {
      "bufferView": 2,
      "byteOffset": 42000,
      "componentType": 5126,
      "count": 320,
      "max": [
        1026.6953125,
        587.4600219726563,
        65.33403778076172
      ],
      "min": [
        655.853759765625,
        216.61849975585938,
        0.0
      ],
      "type": "VEC3"
    },
    {
      "bufferView": 2,
      "byteOffset": 45840,
      "componentType": 5126,
      "count": 320,
      "max": [
        0.9524202346801758,
        0.9524202346801758,
        0.8889920711517334
      ],
      "min": [
        -0.9524202346801758,
        -0.9524202346801758,
        -0.8889920711517334
      ],
      "type": "VEC3"
    },
    {
      "bufferView": 1,
      "byteOffset": 11696,
      "componentType": 5126,
      "count": 320,
      "max": [
        0.0,
        0.0
      ],
      "min": [
        0.0,
        0.0
      ],
      "type": "VEC2"
    },
    {
      "bufferView": 0,
      "byteOffset": 24696,
      "componentType": 5125,
      "count": 1704,
      "type": "SCALAR"
    },
    {
      "bufferView": 2,
      "byteOffset": 49680,
      "componentType": 5126,
      "count": 330,
      "max": [
        1041.933837890625,
        602.6985473632813,
        94.5744400024414
      ],
      "min": [
        641.5449829101563,
        202.30972290039063,
        6.997750759124756
      ],
      "type": "VEC3"
    },
    {
      "bufferView": 2,
      "byteOffset": 53640,
      "componentType": 5126,
      "count": 330,
      "max": [
        0.8423389792442322,
        0.8423389196395874,
        1.0
      ],
      "min": [
        -0.9953981637954712,
        -0.9953981637954712,
        -1.0
      ],
      "type": "VEC3"
    },
    {
      "bufferView": 1,
      "byteOffset": 14256,
      "componentType": 5126,
      "count": 330,
      "max": [
        0.9818990230560303,
        0.9692869782447815
      ],
      "min": [
        0.01799199916422367,
        0.007747000083327293
      ],
      "type": "VEC2"
    },
    {
      "bufferView": 0,
      "byteOffset": 31512,
      "componentType": 5125,
      "count": 738,
      "type": "SCALAR"
    }
  ],
  "asset": {
    "extras": {
      "author": "Victorr2603 (https://sketchfab.com/Victorr2603)",
      "license": "CC-BY-4.0 (http://creativecommons.org/licenses/by/4.0/)",
      "source": "https://sketchfab.com/3d-models/voiture-de-sport-cbf8d308ac474f87b1544634d2dca016",
      "title": "Voiture de sport"
    },
    "generator": "Sketchfab-15.5.0",
    "version": "2.0"
  },
  "bufferViews": [
    {
      "buffer": 0,
      "byteLength": 34464,
      "name": "floatBufferViews",
      "target": 34963
    },
    {
      "buffer": 0,
      "byteLength": 16896,
      "byteOffset": 34464,
      "byteStride": 8,
      "name": "floatBufferViews",
      "target": 34962
    },
    {
      "buffer": 0,
      "byteLength": 57600,
      "byteOffset": 51360,
      "byteStride": 12,
      "name": "floatBufferViews",
      "target": 34962
    }
  ],
  "buffers": [
    {
      "byteLength": 108960,
      "uri": "scene.bin"
    }
  ],
  "images": [
    {
      "uri": "textures/textured_baseColor.png"
    }
  ],
  "materials": [
    {
      "doubleSided": true,
      "name": "blackplastic",
      "pbrMetallicRoughness": {
        "baseColorFactor": [
          0.010728,
          0.010728,
          0.010728,
          1.0
        ],
        "metallicFactor": 0.0,
        "roughnessFactor": 0.9483158988953239
      }
    },
    {
      "doubleSided": true,
      "name": "firstcolor",
      "pbrMetallicRoughness": {
        "baseColorFactor": [
          0.8,
          0.0,
          0.0,
          1.0
        ],
        "metallicFactor": 0.0,
        "roughnessFactor": 0.8657325192858675
      }
    },
    {
      "alphaMode": "BLEND",
      "doubleSided": true,
      "name": "glass",
      "pbrMetallicRoughness": {
        "baseColorFactor": [
          0.248651,
          0.248651,
          0.248651,
          0.343195
        ],
        "metallicFactor": 0.0,
        "roughnessFactor": 0.8434915419926713
      }
    },
    {
      "alphaMode": "BLEND",
      "doubleSided": true,
      "name": "glassfocus",
      "pbrMetallicRoughness": {
        "baseColorFactor": [
          0.366024,
          0.366024,
          0.366024,
          0.250172
        ],
        "metallicFactor": 0.0,
        "roughnessFactor": 0.8434915419926713
      }
    },
    {
      "doubleSided": true,
      "name": "ground_1",
      "pbrMetallicRoughness": {
        "baseColorFactor": [
          0.658824,
          0.658824,
          0.658824,
          1.0
        ],
        "metallicFactor": 0.0
      }
    },
    {
      "doubleSided": true,
      "name": "holes",
      "pbrMetallicRoughness": {
        "baseColorFactor": [
          0.025176,
          0.025176,
          0.025176,
          1.0
        ],
        "metallicFactor": 0.0
      }
    },
    {
      "doubleSided": true,
      "name": "interior",
      "pbrMetallicRoughness": {
        "baseColorFactor": [
          0.016302,
          0.016302,
          0.016302,
          1.0
        ],
        "metallicFactor": 0.0,
        "roughnessFactor": 0.9727918872424051
      }
    },
    {
      "doubleSided": true,
      "name": "lowparts",
      "pbrMetallicRoughness": {
        "baseColorFactor": [
          0.017583,
          0.017583,
          0.017583,
          1.0
        ],
        "metallicFactor": 0.0
      }
    },
    {
      "doubleSided": true,
      "name": "sweethome3d_window_mirror",
      "pbrMetallicRoughness": {
        "baseColorFactor": [
          0.64,
          0.64,
          0.64,
          1.0
        ],
        "metallicFactor": 0.0,
        "roughnessFactor": 0.8434915419926713
      }
    },
    {
      "doubleSided": true,
      "name": "textured",
      "pbrMetallicRoughness": {
        "baseColorTexture": {
          "index": 0
        },
        "metallicFactor": 0.0
      }
    },
    {
      "doubleSided": true,
      "name": "tires",
      "pbrMetallicRoughness": {
        "baseColorFactor": [
          0.003884,
          0.003884,
          0.003884,
          1.0
        ],
        "metallicFactor": 0.0
      }
    }
  ],
  "meshes": [
    {
      "name": "Object_0",
      "primitives": [
        {
          "attributes": {
            "NORMAL": 1,
            "POSITION": 0,
            "TEXCOORD_0": 2
          },
          "indices": 3,
          "material": 0,
          "mode": 4
        }
      ]
    },
    {
      "name": "Object_1",
      "primitives": [
        {
          "attributes": {
            "NORMAL": 5,
            "POSITION": 4,
            "TEXCOORD_0": 6
          },
          "indices": 7,
          "material": 1,
          "mode": 4
        }
      ]
    },
    {
      "name": "Object_2",
      "primitives": [
        {
          "attributes": {
            "NORMAL": 9,
            "POSITION": 8,
            "TEXCOORD_0": 10
          },
          "indices": 11,
          "material": 2,
          "mode": 4
        }
      ]
    },
    {
      "name": "Object_3",
      "primitives": [
        {
          "attributes": {
            "NORMAL": 13,
            "POSITION": 12,
            "TEXCOORD_0": 14
          },
          "indices": 15,
          "material": 3,
          "mode": 4
        }
      ]
    },
    {
      "name": "Object_4",
      "primitives": [
        {
          "attributes": {
            "NORMAL": 17,
            "POSITION": 16
          },
          "indices": 18,
          "material": 4,
          "mode": 4
        }
      ]
    },
    {
      "name": "Object_5",
      "primitives": [
        {
          "attributes": {
            "NORMAL": 20,
            "POSITION": 19,
            "TEXCOORD_0": 21
          },
          "indices": 22,
          "material": 5,
          "mode": 4
        }
      ]
    },
    {
      "name": "Object_6",
      "primitives": [
        {
          "attributes": {
            "NORMAL": 24,
            "POSITION": 23
          },
          "indices": 25,
          "material": 6,
          "mode": 4
        }
      ]
    },
    {
      "name": "Object_7",
      "primitives": [
        {
          "attributes": {
            "NORMAL": 27,
            "POSITION": 26,
            "TEXCOORD_0": 28
          },
          "indices": 29,
          "material": 7,
          "mode": 4
        }
      ]
    },
    {
      "name": "Object_8",
      "primitives": [
        {
          "attributes": {
            "NORMAL": 31,
            "POSITION": 30
          },
          "indices": 32,
          "material": 8,
          "mode": 4
        }
      ]
    },
    {
      "name": "Object_9",
      "primitives": [
        {
          "attributes": {
            "NORMAL": 34,
            "POSITION": 33,
            "TEXCOORD_0": 35
          },
          "indices": 36,
          "material": 10,
          "mode": 4
        }
      ]
    },
    {
      "name": "Object_10",
      "primitives": [
        {
          "attributes": {
            "NORMAL": 38,
            "POSITION": 37,
            "TEXCOORD_0": 39
          },
          "indices": 40,
          "material": 9,
          "mode": 4
        }
      ]
    }
  ],
  "nodes": [
    {
      "children": [
        1
      ],
      "matrix": [
        1.0,
        0.0,
        0.0,
        0.0,
        0.0,
        2.220446049250313e-16,
        -1.0,
        0.0,
        0.0,
        1.0,
        2.220446049250313e-16,
        0.0,
        0.0,
        0.0,
        0.0,
        1.0
      ],
      "name": "Sketchfab_model"
    },
    {
      "children": [
        2,
        3,
        4,
        5,
        6,
        7,
        8,
        9,
        10,
        11,
        12
      ],
      "name": "voiture sweet home 3d.obj.cleaner.materialmerger.gles"
    },
    {
      "mesh": 0,
      "name": "Object_2"
    },
    {
      "mesh": 1,
      "name": "Object_3"
    },
    {
      "mesh": 2,
      "name": "Object_4"
    },
    {
      "mesh": 3,
      "name": "Object_5"
    },
    {
      "mesh": 4,
      "name": "Object_6"
    },
    {
      "mesh": 5,
      "name": "Object_7"
    },
    {
      "mesh": 6,
      "name": "Object_8"
    },
    {
      "mesh": 7,
      "name": "Object_9"
    },
    {
      "mesh": 8,
      "name": "Object_10"
    },
    {
      "mesh": 9,
      "name": "Object_11"
    },
    {
      "mesh": 10,
      "name": "Object_12"
    }
  ],
  "samplers": [
    {
      "magFilter": 9729,
      "minFilter": 9987,
      "wrapS": 10497,
      "wrapT": 10497
    }
  ],
  "scene": 0,
  "scenes": [
    {
      "name": "Sketchfab_Scene",
      "nodes": [
        0
      ]
    }
  ],
  "textures": [
    {
      "sampler": 0,
      "source": 0
    }
  ]
}
